<?xml version="1.0" encoding="utf-8"?>
<!-- Generator: Adobe Illustrator 25.4.1, SVG Export Plug-In . SVG Version: 6.00 Build 0)  -->
<svg version="1.1" id="Layer_1" xmlns="http://www.w3.org/2000/svg" xmlns:xlink="http://www.w3.org/1999/xlink" x="0px" y="0px"
	 viewBox="0 0 800 600" style="enable-background:new 0 0 800 600;" xml:space="preserve">
<style type="text/css">
	.st0{fill:#ECECEC;}
	.st1{clip-path:url(#SVGID_00000133512658951888640460000011889982403101960353_);}
	.st2{fill:none;stroke:#AEBFC4;stroke-miterlimit:10;}
	.st3{fill:#1F4068;}
	.st4{fill:none;stroke:#FFFFFF;stroke-miterlimit:10;}
	.st5{fill:#5C7C0E;}
	.st6{fill:#76A21E;}
	.st7{fill:#1B1B2F;}
	.st8{fill:#0E0E1C;}
	.st9{fill:none;stroke:#D8E1E5;stroke-miterlimit:10;}
	.st10{fill:#D8E1E5;}
	.st11{clip-path:url(#SVGID_00000088838359155021893220000012252701157264713626_);}
	.st12{fill:#FF8F6A;}
	.st13{fill:#D74015;}
	.st14{fill:#1A1C1C;}
	.st15{fill:#E43F5A;}
	.st16{fill:none;stroke:#D74015;stroke-miterlimit:10;}
	.st17{fill:#FFFFFF;}
	.st18{fill:none;stroke:#A5213A;stroke-miterlimit:10;}
	.st19{fill:#FFB319;}
	.st20{fill:none;stroke:#FFFFFF;stroke-width:2;stroke-miterlimit:10;}
	.st21{fill:#A5213A;}
	.st22{fill:#F1D6AB;}
	.st23{fill:#A0855B;}
	.st24{fill:#FFC5AE;}
	.st25{fill:none;stroke:#FF946E;stroke-miterlimit:10;}
	.st26{fill:#43D8C9;}
	.st27{fill:none;stroke:#0E0E1C;stroke-miterlimit:10;}
	.st28{fill:#29AA9B;}
	.st29{fill:#F7F7F7;}
	.st30{fill:#5E1212;}
	.st31{fill:#FF946E;}
	.st32{fill:none;stroke:#541D0C;stroke-miterlimit:10;}
	.st33{fill:none;stroke:#ECECEC;stroke-width:2;stroke-miterlimit:10;}
	.st34{fill:#26263F;}
	.st35{fill:none;stroke:#1B1B2F;stroke-miterlimit:10;}
	.st36{fill:#D7DDDC;}
	.st37{fill:#DB8321;}
	.st38{fill:#9C5518;}
	.st39{fill:#EF962D;}
	.st40{fill:none;stroke:#95389E;stroke-miterlimit:10;}
</style>
<g>
	<g>
		<path class="st0" d="M343.44,188.29C224.11,273.24,92.75,224.47,117.6,340.88c33.18,155.39,439.23,278.11,548.71-10.22
			C749.87,110.6,544.69,45.02,343.44,188.29z"/>
		<path class="st0" d="M286,171.69c-125.82,71.15-188.13,27.76-136.48-47S410.16,101.48,286,171.69z"/>
	</g>
	<g>
		<defs>
			<rect id="SVGID_1_" x="91.43" y="67.31" width="617.14" height="465.37"/>
		</defs>
		<clipPath id="SVGID_00000078758018858304563660000007043972448790223760_">
			<use xlink:href="#SVGID_1_"  style="overflow:visible;"/>
		</clipPath>
		<g style="clip-path:url(#SVGID_00000078758018858304563660000007043972448790223760_);">
			<g>
				<g>
					<path class="st2" d="M210.8,110.71v249.63c0,6.15,4.99,11.13,11.13,11.13h410.21c6.15,0,11.13-4.99,11.13-11.13V110.71
						c0-6.15-4.99-11.13-11.13-11.13H221.94C215.79,99.58,210.8,104.56,210.8,110.71z"/>
					<line class="st2" x1="210.8" y1="128.53" x2="643.28" y2="128.53"/>
				</g>
				<g>
					<path class="st2" d="M569.25,107.31c-3.33,0-6.03,2.7-6.03,6.03c0,3.33,2.7,6.03,6.03,6.03c3.33,0,6.03-2.7,6.03-6.03
						C575.28,110.01,572.58,107.31,569.25,107.31z"/>
					<path class="st2" d="M593.75,107.31c-3.33,0-6.03,2.7-6.03,6.03c0,3.33,2.7,6.03,6.03,6.03c3.33,0,6.03-2.7,6.03-6.03
						C599.77,110.01,597.08,107.31,593.75,107.31z"/>
					<path class="st2" d="M618.25,107.31c-3.33,0-6.03,2.7-6.03,6.03c0,3.33,2.7,6.03,6.03,6.03c3.33,0,6.03-2.7,6.03-6.03
						C624.27,110.01,621.57,107.31,618.25,107.31z"/>
				</g>
			</g>
			<g>
				<path class="st3" d="M672.24,263.43c0-2.9-0.42-5.7-1.2-8.35l5.91-5.2l-5.46-9.45l-7.47,2.52c-3.86-4.04-8.85-7-14.46-8.36
					l-1.55-7.72h-10.91l-1.55,7.72c-5.61,1.36-10.6,4.31-14.46,8.36l-7.47-2.52l-5.46,9.45l5.91,5.2c-0.78,2.65-1.2,5.45-1.2,8.35
					c0,2.9,0.42,5.7,1.2,8.35l-5.91,5.2l5.46,9.45l7.47-2.52c3.86,4.04,8.85,7,14.46,8.36l1.55,7.72H648l1.55-7.72
					c5.61-1.36,10.6-4.31,14.46-8.36l7.47,2.52l5.46-9.45l-5.91-5.2C671.81,269.14,672.24,266.34,672.24,263.43z M642.55,276.38
					c-7.15,0-12.94-5.79-12.94-12.94c0-7.15,5.79-12.94,12.94-12.94c7.15,0,12.94,5.79,12.94,12.94
					C655.49,270.58,649.7,276.38,642.55,276.38z"/>
				
					<ellipse transform="matrix(0.9732 -0.2298 0.2298 0.9732 -43.3359 154.6742)" class="st4" cx="642.55" cy="263.43" rx="19.74" ry="19.74"/>
			</g>
			<g>
				<g>
					<g>
						<path class="st5" d="M116.72,361.46c0,0,3.86,20.29,8.98,25.14c5.12,4.85,24.03,1.62,24.03,1.62L116.72,361.46z"/>
						<path class="st6" d="M172.39,437.61c0,0-5.21-42.38-10.06-49.92c-2.55-3.97-45.61-26.22-45.61-26.22s6.67,12.56,17.24,26.94
							c13.14,17.87,25.74,7.79,29.09,11.13c3.35,3.34,7.54,38.07,7.54,38.07H172.39z"/>
					</g>
					<g>
						<path class="st5" d="M147.35,330.31c0.54-4.06,3.83-15.9,3.83-15.9s4.53,25.54,11.58,50.37
							C162.75,364.79,145.35,345.29,147.35,330.31z"/>
						<path class="st6" d="M172.9,437.61c0,0-0.54-53.16-3.05-62.13s-22.5-45.16-22.5-45.16s-3.56,21.85-2.64,28.99
							c1.84,14.26,23.03,21.64,24.38,24.2c1.35,2.56,2.29,54.1,2.29,54.1H172.9z"/>
					</g>
					<path class="st6" d="M169.18,437.61c0,0,8.21-53.43,8.21-56.12c0-2.69-5.39-26.94,0-39.06s22.36-33.67,22.36-33.67
						s2.69,27.48,0,40.41s-19.97,30.98-20.36,33.4c-0.39,2.42-7.93,55.04-7.93,55.04H169.18z"/>
					<g>
						<path class="st5" d="M222.38,341.62c0,0,1.19,16.16-0.43,23.44s-21.01,12.66-21.01,12.66S218.88,354.82,222.38,341.62z"/>
						<path class="st6" d="M171.58,437.61c0,0,6.19-44.81,12.25-54.23c6.06-9.43,19.8-18.05,25.19-23.44s13.36-18.32,13.36-18.32
							s-3.66,23.17-7.97,32.86s-25.74,11.4-29.09,12.12s-11.85,51-11.85,51H171.58z"/>
					</g>
				</g>
				<g>
					<path class="st7" d="M151.09,404.71l2.29,30.46c0.38,5.04,4.58,8.94,9.63,8.94h20.97c5.05,0,9.25-3.9,9.63-8.94l2.29-30.46
						H151.09z"/>
					<path class="st8" d="M174.86,444.11h9.13c5.05,0,9.25-3.9,9.63-8.94l2.29-30.46h-8.08
						C185.56,414.55,181.14,431.19,174.86,444.11z"/>
				</g>
			</g>
			<g>
				<g>
					<circle class="st9" cx="326.14" cy="163.14" r="93.27"/>
					<g>
						<circle class="st10" cx="326.14" cy="163.14" r="88.23"/>
						<g>
							<defs>
								<circle id="SVGID_00000016042445026491860230000010575286290106425998_" cx="326.14" cy="163.14" r="88.23"/>
							</defs>
							<clipPath id="SVGID_00000075142702178618191550000016625404941072389763_">
								<use xlink:href="#SVGID_00000016042445026491860230000010575286290106425998_"  style="overflow:visible;"/>
							</clipPath>
							<g style="clip-path:url(#SVGID_00000075142702178618191550000016625404941072389763_);">
								<path class="st7" d="M250.73,221.75c-2.56,3.97,23.14,19.66,34.84,12.44l-10.03-22.36
									C275.54,211.83,255.71,214.03,250.73,221.75z"/>
								<path class="st12" d="M259.22,225.42c0.3-3.62,13.58-47.31,23.82-58.09c0,0,9.35,14.28,8.8,32.6l-18.71,38.98L259.22,225.42
									z"/>
								<g>
									<path class="st13" d="M353.02,117.92c0,0,0.25,8.08-0.62,11.78c-0.87,3.7-4.45,10.61-4.45,10.61l3.32,14.08l13.94-1.7
										c0,0,4-14.93,2.81-21.4L353.02,117.92z"/>
									<path class="st14" d="M334.5,121.12l21.03,25.07c0.7,0.83,1.93,0.94,2.76,0.24l10.91-9.16c0.83-0.7,0.94-1.93,0.24-2.76
										l-21.03-25.07c-0.7-0.83-1.93-0.94-2.76-0.24l-10.91,9.16C333.91,119.06,333.8,120.3,334.5,121.12z"/>
									<path class="st4" d="M357.04,145.73c-0.24,0-0.46-0.1-0.61-0.28l-21.03-25.07c-0.28-0.34-0.24-0.84,0.1-1.12l10.91-9.16
										c0.18-0.15,0.38-0.19,0.51-0.19c0.24,0,0.46,0.1,0.61,0.29l21.03,25.07c0.14,0.16,0.2,0.37,0.18,0.58
										c-0.02,0.21-0.12,0.41-0.28,0.54l-10.91,9.16C357.36,145.7,357.17,145.73,357.04,145.73L357.04,145.73z"/>
									<path class="st12" d="M358.37,121.31c0,0,1.34-4.03-5.18-6.17C346.67,113,347.3,117.3,358.37,121.31z"/>
									<path class="st12" d="M354.26,122.1c0.65-1.08,5.72-1.68,7.84-0.79c2.12,0.9,0.62,3.36,0.62,3.36s3.23-0.69,3.23,3.15
										c0,0,3.22,2.32,1.61,4.45c-1.61,2.13-5.97,4-7.09,3.62s3.73-5.91,3.73-5.91s-5.35,0.81-7.47,0.28
										c-2.12-0.53,4.27-4.92,4.27-4.92S352.52,124.97,354.26,122.1z"/>
									<path class="st12" d="M354.99,158.7c0,0-8.7-11.57-10.69-14.98c-1.99-3.41-2.06-12.99-2.09-16.35
										c-0.03-3.36,4.2,2.8,4.7,6.5c0.5,3.7,1.03,6.44,1.03,6.44s7.59,5.88,17.27,12.38L354.99,158.7z"/>
									<circle class="st4" cx="361.48" cy="138.25" r="1.39"/>
								</g>
								<path class="st15" d="M306.84,159.68c0,0-10.28,1.14-23.81,7.65c0,0,7.38,42.72,5.51,54.66c-1.87,11.94-4.4,38.97-4.4,38.97
									s19.41,11.56,38.04,9.43s35.87-13.82,41.43-13.57c0,0-4.76-73.19-13.91-92.57c0,0-7.77-1.83-16.54-2.47L306.84,159.68z"/>
								<path class="st12" d="M333.16,161.79c0,0-3.35-14.14-3.03-29.42l-18.57-8.23c0,0,1.18,23.62-4.71,35.53
									C306.84,159.68,326.75,175.99,333.16,161.79z"/>
								<path class="st13" d="M330.12,132.37l-17.14-7.6l-0.24,3.2c0,0,1.73,15.81,18.89,25.58
									C330.8,148.04,329.96,140.37,330.12,132.37z"/>
								<path class="st12" d="M307.81,108.72c4.4-15,32.61-18.03,34.04,3.34c0.75,11.3,3.1,30.16-7.01,32.4
									C324.72,146.69,301.4,130.57,307.81,108.72z"/>
								<path class="st14" d="M328.5,117.05c-0.45-0.03-0.84,0.52-0.88,1.23s0.29,1.3,0.73,1.32c0.45,0.03,0.84-0.52,0.88-1.23
									S328.94,117.07,328.5,117.05z"/>
								<path class="st14" d="M338.12,117.62c-0.45-0.03-0.84,0.52-0.88,1.23c-0.04,0.7,0.29,1.3,0.73,1.32
									c0.45,0.03,0.84-0.52,0.88-1.23C338.89,118.24,338.56,117.64,338.12,117.62z"/>
								<path class="st14" d="M322.6,115.17c0,0,4.08-1.63,7.58-0.86c0,0-0.5-2.46-1.36-2.57
									C327.95,111.62,323.55,112.17,322.6,115.17z"/>
								<path class="st13" d="M341.97,113.82c-0.04-0.6-0.09-1.2-0.12-1.77c-0.93-14.01-13.38-17.53-23.09-14.07l2.08,3.91
									c0,0,1.04,12.5,18.53,7.37C339.37,109.27,339.9,111.75,341.97,113.82z"/>
								<path class="st14" d="M336.22,115.17c0,0,1.97-0.51,3.27,0.57c0,0-0.61-2.34-1.87-2.73
									C336.37,112.62,336.22,115.17,336.22,115.17z"/>
								<path class="st14" d="M316.07,90.86c5.41-1.32,7.86-2.99,7.86-2.99s0.73,2.86-0.89,3.73c0,0,8.89-5.98,15.25-1.49
									c6.88,4.85,11.42,3.51,11.42,3.51s-1.06,2.42-3.42,3.12c0,0,3.73,4.06,2.36,8.05c-1.37,3.98-3.86,3.93-4.48,7.44
									c0,0-5.17-2.21-5.88-7.19c0,0-1.26,1.96-0.57,3.95c0,0-11.72,1.2-16.88-7.09c0,0-1.38,8.17-4.77,9.01
									c0,0,1.52,8.09-0.94,9.29l-3.57,13.84c0,0-3.85-7.57-10.45-14.86c-6.59-7.29,3.74-14.19,3.74-14.19s-2.49-0.94-4.36-0.94
									c0,0,2.24-4.6,6.35-0.62C306.84,103.42,303.51,93.92,316.07,90.86z"/>
								<path class="st12" d="M316.07,121.33c0,0-7.34-9.51-8.91-3.68c-1.13,4.18,6.13,9.88,6.13,9.88L316.07,121.33z"/>
								<path class="st16" d="M313.81,123.65c0,0-3.9-8.46-4.65-5.58s2.32,5,2.32,5"/>
								<path class="st16" d="M327.04,122.01c0,0-2.35-2.02-5.8-2.23"/>
								<path class="st16" d="M337.86,121.96c0,0,1.42-0.89,3.02-1.2"/>
								<path class="st14" d="M316.52,115.17c0,0,0.4,8.37,6.86,13.93c0,0,0.82-1.78,3.65-2.28s8.8,1.5,8.8,1.5s4.49-3.67,6.78-0.78
									s3.6,16.7-4.77,18.57c-8.37,1.87-17.83-1.43-19.82-7.81c0,0,1.26-13.5-4.22-19.52L316.52,115.17z"/>
								<path class="st17" d="M336.63,131.39c0,0-6.15-0.87-9.38-2.3C327.25,129.09,329.74,138.49,336.63,131.39z"/>
								<path class="st15" d="M349.7,164.26c0,0,7.79,2.24,16.49,10.95c8.7,8.71,26.7,22.52,26.7,22.52s-4.56,25.26-13.02,26.01
									c-8.46,0.75-26.75-15.18-26.75-15.18S346.16,179.69,349.7,164.26z"/>
								<path class="st16" d="M330.12,136.49c0,0,2.67-1.26,4.11,0"/>
								<path class="st7" d="M378.42,223.66c-3.25-0.26-3.33-40.35-3.33-40.35l17.8,14.42C392.9,197.73,390.47,224.61,378.42,223.66
									z"/>
								<path class="st16" d="M334.57,119.36c0,0,0.07,4.88,3.76,8.28c0,0-2.76,1.71-4.98-0.3"/>
								<path class="st12" d="M354.99,158.7l10.22-6.01c0,0,30.3,41.13,31.14,45.42s1.91,13.88-3.46,15.29
									c-4.74,1.24-11.53,0.89-16.86-7.21C373.44,202.24,354.99,158.7,354.99,158.7z"/>
								<path class="st18" d="M359.58,213.4c0,0-1.56-25.65-5.87-41.57"/>
								<path class="st15" d="M283.04,167.33c0,0-4.69,1.27-15.14,23.85c-5.73,12.37-17.17,30.57-17.17,30.57
									s21.5-12.47,34.84,12.44c0,0,6.97-22.65,6.22-36.46C291.04,183.92,283.04,167.33,283.04,167.33z"/>
								<path class="st18" d="M285.01,171.83c0,0,13.24,20.08,4.79,45.33"/>
								<path class="st18" d="M303.37,162.52c0,0,25.09,20.4,33.75,0"/>
							</g>
						</g>
					</g>
					<g>
						<g>
							<path class="st12" d="M301.7,196.12c0,0-28.52,24.76-42.48,29.29c-3.01,7.45,1.6,17.94,13.41,16.7
								c10.86-1.14,36.06-34.2,36.06-34.2L301.7,196.12z"/>
							<path class="st13" d="M301.7,196.12c0,0-1.36,1.18-3.64,3.08c1.1,4.85,2.5,12.33,2.57,19.08c4.74-5.8,8.05-10.37,8.05-10.37
								L301.7,196.12z"/>
							<g>
								<path class="st13" d="M298.41,191.56c0,0,1.15-8.89,0.64-13.61c-0.51-4.72,8.13-1.16,5.41,10.91l-1.19,5.62L298.41,191.56z"
									/>
								<path class="st12" d="M308.14,209.27c-3.84-0.18-4.65-3.34-4.65-3.34c-5.29-1.28-4.56-6.59-4.56-6.59s-6.08-5.42-3.12-8.52
									c7.84-8.2,10.49-16.84,12.33-14.49c2.51,3.21-4.49,18.15-4.49,18.15s6.72-16.8,8.81-16.87c2.08-0.07,2.24,8.15-5.28,20.47
									c0,0,5.18-16.52,7.43-14.56C319.43,187.73,308.14,209.27,308.14,209.27z"/>
								<path class="st12" d="M309.58,200c4.16-1.92,9.04-10.19,9.45-7.21c0.36,2.66,0.94,5.08-4.41,10.78l-5.68,4.13L309.58,200z"
									/>
							</g>
						</g>
						<path class="st16" d="M313.27,183.97c0,0-2.9,8.74-6.09,14.11"/>
						<path class="st16" d="M313.85,196.76c0,0-2.84,2.42-4.93,3.44"/>
					</g>
					<polygon class="st12" points="259.22,225.42 260.36,220.67 268.64,226.05 					"/>
					<path class="st16" d="M262.16,224.27c0,0,4.9-2.35,8.19-4.47"/>
				</g>
				<g>
					<path class="st19" d="M375.55,86.27v25.85c0,4.42,3.58,8,8,8h25.85c4.42,0,8-3.58,8-8V86.27c0-4.42-3.58-8-8-8h-25.85
						C379.13,78.27,375.55,81.85,375.55,86.27z"/>
					<polyline class="st20" points="384.09,95.75 393.85,105.5 408.84,90.51 					"/>
				</g>
			</g>
			<g>
				<g>
					<path class="st15" d="M603.79,337.17c-5.48-34-118.26-36.24-129.41,0c-8.65,28.13-30.35,112.09-39.48,126.51
						c-6.95,10.97-45.94,6.58-62.51,17.91c-11.7,8-6.95,28.15-5.48,35.82c0,0,152.44,0,194.11,0S603.79,337.17,603.79,337.17z"/>
					<path class="st21" d="M603.79,337.17c-0.53-3.29-2.07-6.28-4.42-8.97c-2.55,2.67-4.43,5.66-5.44,8.97
						c-8.65,28.13-30.35,112.09-39.48,126.51c-6.95,10.97-45.94,6.58-62.51,17.91c-11.7,8-6.95,28.15-5.48,35.82
						c30.97,0,59.76,0,74.57,0C602.7,517.41,603.79,337.17,603.79,337.17z"/>
					<polygon class="st22" points="383.65,517.41 357.28,682.55 366.3,682.55 402.38,517.41 					"/>
					<polygon class="st22" points="430.43,517.41 426.61,682.55 435.63,682.55 449.16,517.41 					"/>
					<polygon class="st22" points="503.4,517.41 507.21,682.55 498.19,682.55 484.66,517.41 					"/>
					<polygon class="st22" points="550.17,517.41 576.54,682.55 567.52,682.55 531.44,517.41 					"/>
					<g>
						<polygon class="st23" points="401.53,521.29 402.38,517.41 383.65,517.41 383.48,518.47 						"/>
						<polygon class="st23" points="448.24,528.6 449.16,517.41 430.43,517.41 430.23,525.78 						"/>
						<polygon class="st23" points="503.86,537.3 503.4,517.41 484.66,517.41 486.06,534.52 						"/>
						<polygon class="st23" points="554.62,545.24 550.17,517.41 531.44,517.41 536.91,542.47 						"/>
					</g>
				</g>
				<g>
					<path class="st8" d="M429.82,433.43l-4.72,21.69l-43.08,15.17c-16.25,5.72-26.31,22.13-23.77,39.17
						c2.1,14.09,7.8,27.73,21.99,27.73c29.37,0,113.85,0,113.85,0s34.46-29.23,39.3-67.8c2.26-17.96-12.46-35.95-12.46-35.95H429.82
						z"/>
					<g>
						<path class="st8" d="M401.99,444.57c0,0-21.15-18.42-18.07-48.3l10.79,1.45l15.43,33.31L401.99,444.57z"/>
						<path class="st24" d="M443.86,303.35c0,0-10.5,5.67-19.23,25.62C409.44,363.73,400,388.58,400,388.58l-76.61,36.68
							c0,0-4.38,9.01,5.83,17.08c0,0,72.76-16.7,86.37-24.01c13.61-7.31,34.91-72.97,34.91-72.97S455.09,321.7,443.86,303.35z"/>
						<g>
							<path class="st24" d="M323.39,425.26c0,0-7.32-4.43-11.61-4.64c-4.29-0.21-10.29,2.36-17.79,4.71s-21.53,13.43-22.98,14.32
								c-1.45,0.89,0.69,3.39,7.55,0c0,0-1.27,2.61,2.37,2.61c2.35,0,5.35-2.93,5.35-2.93s0,2.89,1.5,2.97s38.36-5.42,38.36-5.42
								L323.39,425.26z"/>
							<path class="st24" d="M329.22,442.33c0,0-6.93,0-14.22,0s-19.5-0.24-17.79-3.05c1.71-2.81,27.77-7.31,27.77-7.31
								L329.22,442.33z"/>
							<path class="st25" d="M317.35,433.41c0,0-19.23,3.4-20.13,5.87c-0.9,2.48,10.07,2.97,10.07,2.97"/>
							<path class="st25" d="M286.29,439.32c1.07-1.99,6.43-8.28,15-13.03c2.45-1.36,8.57-3.54,8.57-3.54"/>
							<path class="st25" d="M278.57,439.65c3.22-4.46,14.15-13.35,14.15-13.35"/>
						</g>
						<path class="st26" d="M401.99,444.57c0,0,28.13-17.46,36.73-36.56c8.6-19.1,22.33-72.26,22.33-72.26l-17.18-32.41
							c0,0-10.66,5.69-19.23,25.62c-8.56,19.94-24.64,59.61-24.64,59.61l-16.08,7.7c0,0,4.52-0.65,12.37,11.74
							C404.14,420.4,401.99,444.57,401.99,444.57z"/>
						<line class="st27" x1="400" y1="388.58" x2="412.4" y2="406.87"/>
						<path class="st28" d="M438.72,408.01c8.6-19.1,22.33-72.26,22.33-72.26l-12.16-22.94c-15.55,53.69-46.89,131.75-46.89,131.75
							S430.12,427.11,438.72,408.01z"/>
					</g>
					<path class="st29" d="M467.17,298.05l-23.3,5.3c0,0-15.85,38.82-15.45,54.1c0.39,15.28,1.41,75.98,1.41,75.98
						s43.83,13.17,91.11,0c0,0,3.87-50.77,6.02-61.76c2.16-10.99,5.05-71.7,5.05-71.7l-24.06-1.92H467.17z"/>
					<path class="st30" d="M526.83,214.34c3.12,9.45,7.94,51.17,18.87,63.58c0,0-31.16,18.43-59.78,16.86
						c-28.62-1.57-46.91-14.53-46.91-14.53s20.82-34.74,24.58-65.91H526.83z"/>
					<path class="st24" d="M504.38,249.78c0,0-5.91,39.61,3.56,48.28c0,0-18.73,23.97-30.39,21.09
						c-9.91-2.45-10.39-21.09-10.39-21.09s3.75-2.58,6.43-9.49c2.67-6.91,3.4-25.15,3.4-25.15L504.38,249.78z"/>
					<path class="st31" d="M500.65,251.63l-23.66,11.78c0,0-0.61,15.32-2.77,23.2C498.41,278.73,500.48,255.78,500.65,251.63z"/>
					<path class="st24" d="M512.63,212.04c-7.58-25.84-56.17-31.05-58.62,5.75c-1.3,19.46-5.34,51.95,12.08,55.81
						C483.5,277.45,523.67,249.68,512.63,212.04z"/>
					<path class="st30" d="M475.68,226.23c0,0,7.13-5.89,14.52,2c0,0-3.18-11.96-13.38-6.26L475.68,226.23z"/>
					<path class="st32" d="M476.83,235.24c0,0,2.32-6.86,5.21-6.69s2.11,6.97,2.11,6.97"/>
					<path class="st30" d="M463.9,225.67c0,0-5.38-5.87-8.48-1.01c0,0,2.72-8.8,8.48-2.85V225.67z"/>
					<path class="st32" d="M462.36,234.03c0,0,0.17-6.43-2.21-6.43s-2.61,5.17-2.61,5.17"/>
					<path class="st25" d="M465.88,238.3c0,0-1.63,4.61-6.22,8.31c0,0,0.84,2.76,4.36,3.17"/>
					<path class="st25" d="M460.43,254.71c0,0,4.21,6.06,13.47,0"/>
					<path class="st25" d="M477.55,240.11c2.09-3.62,11.11-2.65,11.66,0"/>
					<path class="st25" d="M459.95,239.81c0,0-2.64-4.66-6.03-2.41"/>
					<path class="st30" d="M453.15,221.49c0,0,5.49-11.52,17.2-18.91c0,0,13.76,33.11,39.73,34.39l16.75-22.63
						c0,0-6.63-26.05-22.44-28.65s-32.32,5.56-32.32,5.56s-7.58-9.89-16.95-2.66c-9.38,7.23-21.27,2.83-21.27,2.83
						s3.06,6.08,15.67,4.44C449.51,195.86,432.6,213.72,453.15,221.49z"/>
					<path class="st30" d="M499.62,221.49c0,0,1.72,30.47,14.9,38.09l2.54-36.75L499.62,221.49z"/>
					<path class="st24" d="M502.08,241.32c0,0,18.31-20.94,17.83-4.4c-0.48,16.54-19.66,16.97-19.66,16.97L502.08,241.32z"/>
					<g>
						<circle class="st33" cx="458.03" cy="232.69" r="8.46"/>
						<circle class="st33" cx="480.95" cy="232.69" r="8.46"/>
						<line class="st33" x1="466.49" y1="232.69" x2="472.48" y2="232.69"/>
						<line class="st33" x1="489.41" y1="232.69" x2="509.89" y2="232.69"/>
					</g>
					<path class="st25" d="M515.99,239.98c0,0,1.46-5.48-2.43-3.37c-7.49,4.06-7.78,7.32-6.95,11.91"/>
					<g>
						<path class="st7" d="M510.08,234.03c0,0-1.08-51.85-38.02-42.77l-2.77-2.66c0,0,13.19-11.41,30.34,0s17.44,44.09,17.44,44.09
							L510.08,234.03z"/>
						
							<ellipse transform="matrix(0.159 -0.9873 0.9873 0.159 191.4308 707.9502)" class="st34" cx="511.28" cy="241.61" rx="17.4" ry="11.68"/>
						
							<ellipse transform="matrix(0.0878 -0.9961 0.9961 0.0878 227.69 733.0997)" class="st35" cx="514.13" cy="242.23" rx="11.3" ry="5.72"/>
						
							<ellipse transform="matrix(0.0764 -0.9971 0.9971 0.0764 233.7472 736.7872)" class="st26" cx="514.56" cy="242.23" rx="6.72" ry="3.12"/>
						<path class="st7" d="M505.68,239.23c0.56-6.36,3.38-11.9,7.13-14.9c-0.01,0-0.02,0-0.02,0c-6.5,0-12.44,7.74-13.27,17.28
							c-0.83,9.54,3.75,17.28,10.25,17.28c2.17,0,4.27-0.88,6.15-2.38C509.43,256.48,504.85,248.76,505.68,239.23z"/>
					</g>
					<g>
						<path class="st7" d="M485.44,260.27l-0.58-1.66c12.78-4.5,17-10.04,17.04-10.1l1.41,1.04
							C503.13,249.81,498.73,255.6,485.44,260.27z"/>
					</g>
					<path class="st8" d="M485.92,260.54c0,0,0.29-2.74-2.32-3.14c-2.61-0.4-7.22,2.71-6.04,5.06
						C478.73,264.83,485.07,263.33,485.92,260.54z"/>
					<path class="st26" d="M532.01,299.97c0,0,12.19,3.93,16.78,19.48c4.59,15.54,36.64,91.74-10.28,94.71
						c-10.52,0.67-14.58-43.46-14.58-43.46S522.73,316.26,532.01,299.97z"/>
					<path class="st36" d="M428.41,357.45c0.4,15.28,1.41,75.98,1.41,75.98s8.71,2.62,22.54,4.35
						c3.37-63.51,14.8-139.73,14.8-139.73l-23.3,5.3C443.86,303.35,428.01,342.17,428.41,357.45z"/>
					<path class="st26" d="M507.94,298.05c0,0-9.96,73.06-5.45,155.35c0,0,29.21,6.43,40.86-5.57c0,0-10.52-29.55-11.35-73.53
						c-0.35-18.58,0-74.33,0-74.33L507.94,298.05z"/>
					<path class="st26" d="M467.17,298.05c0,0-20.6,59.95-25.96,152c0,0-12.21,1.62-20.35-3.73c0,0,6.26-91.58,7.55-97.53
						c5.44-25.26,15.46-45.45,15.46-45.45L467.17,298.05z"/>
					<path class="st27" d="M532.01,365.38c0,0-15.05-33.49-4.08-58.68"/>
					<path class="st28" d="M532.01,374.3c-0.06-2.94-0.09-6.81-0.12-11.24L503.59,344c-0.58,8.53-1.12,18-1.52,28.19
						c5.38,16.56,13.42,35.58,24.76,49.05l7.17,31.97c3.61-1.12,6.89-2.84,9.36-5.39C543.35,447.83,532.84,418.28,532.01,374.3z"/>
					<path class="st27" d="M440.26,312.65c0,0-8.17,21.97-11.86,36.14s-5.92,79.96-5.92,79.96"/>
					<path class="st8" d="M544.52,371.56c0,0,6.11,55.57-13.83,40.21c-11.76-9.05-13.11-46.39-13.11-46.39L544.52,371.56z"/>
					<path class="st28" d="M473.1,289.76c0,0-1.41,4.29-5.94,8.3c0,0-7.33,28.2-16.54,69.86c0,0-7.89-22.12-6.62-29.44
						s8.66-13.43,8.66-13.43s-0.81-14.43-0.55-20.09C452.38,299.28,473.1,289.76,473.1,289.76z"/>
					<path class="st28" d="M503.72,289.76c0,0,17.34,6.36,18.99,10.21s-13.22,25.39-13.22,25.39s5.68,9.03,6.42,14.8
						s-13.84,32.03-13.84,32.03s0.39-44.23,5.88-74.14C507.94,298.05,504.3,294.65,503.72,289.76z"/>
					<g>
						<path class="st31" d="M493.85,284.7c0,0-7.07-24.84-9.91-21.59c-7.11,8.17,1.78,25.57,1.78,25.57L493.85,284.7z"/>
						<g>
							<path class="st24" d="M505.69,304.63c0,0-2.59-13.72-1.85-17.58c1.02-5.34-5.04-17.21-7.73-21.35
								c-2.7-4.13-10.54-12.75-11.4-11.07c-0.86,1.67,1.75,9.56,5.5,14.51c0,0-3.33-3.15-5.26,0.08s-0.83,5.87-0.83,5.87
								s-2.9-0.03-4.34,2.58c-1.44,2.61-1.21,6.4-1.21,6.4s-4.25,0.67-4.34,4.16s3.16,11.7,4.51,14.69
								c1.35,2.99,2.56-2.09,2.56-2.09l8.87,9.39L505.69,304.63z"/>
							<path class="st25" d="M490.2,269.15c0,0,3.62,2.94,5.58,11.56"/>
							<path class="st25" d="M484.11,275.09c0,0,4.77,2.65,6.3,10.65"/>
							<path class="st25" d="M478.56,284.07c0,0,3.23-0.99,6.23,5.69"/>
							<path class="st25" d="M481.3,300.83c0,0-2.35-3.59-1.53-8.66"/>
						</g>
					</g>
					<path class="st24" d="M500.97,303.96l43.55,67.6c0,0-2.3,34.01-27.46,11.99c-15.68-13.73-32.36-76.85-32.36-76.85
						L500.97,303.96z"/>
				</g>
			</g>
			<g>
				<path class="st7" d="M378.82,260.62H204.88c-7.36,0-12.93,6.64-11.65,13.89l20.69,117.36c1,5.66,5.91,9.78,11.65,9.78h4.17
					h173.94L378.82,260.62z"/>
				<path class="st8" d="M395.94,357.7c-56.56,5.64-138.92,1.73-200.63-71.39l18.61,105.56c1,5.66,5.91,9.78,11.65,9.78h4.17h173.94
					L395.94,357.7z"/>
				<polygon class="st8" points="323.89,359.23 264.5,359.23 257.02,401.65 331.59,401.65 				"/>
				<path class="st34" d="M378.82,260.62L378.82,260.62c-7.36,0-12.93,6.64-11.65,13.89l20.69,117.36c1,5.66,5.91,9.78,11.65,9.78
					h4.17L378.82,260.62z"/>
				<path class="st7" d="M310.18,436.97l13.71-77.74H264.5l-13.72,77.8c-0.65,3.67,2.18,7.04,5.91,7.04h101.07v-1.1
					c0-3.31-2.69-6-6-6H310.18z"/>
				<path class="st8" d="M256.69,444.07h101.07v-1.1c0-3.31-2.69-6-6-6h-41.58l1.93-10.92c-41.11-15.77-47.61-66.82-47.61-66.82
					l-13.72,77.8C250.13,440.7,252.96,444.07,256.69,444.07z"/>
				<path class="st34" d="M351.76,436.97h-41.58l13.71-77.74l0,0c-4.19,0-7.78,3.01-8.51,7.14l-12.46,70.66
					c-0.65,3.67,2.18,7.04,5.91,7.04h48.93v-1.1C357.76,439.65,355.07,436.97,351.76,436.97z"/>
				
					<ellipse transform="matrix(0.6753 -0.7375 0.7375 0.6753 -144.2174 314.2109)" class="st34" cx="284.78" cy="320.91" rx="8.68" ry="10.35"/>
			</g>
			<g>
				<g>
					<g>
						<polygon class="st37" points="535.78,464.85 540.36,663.02 529.53,663.02 513.3,464.85 						"/>
						<polygon class="st37" points="654.8,464.85 686.44,663.02 675.62,663.02 632.32,464.85 						"/>
					</g>
					<g>
						<polygon class="st38" points="267.38,464.85 262.8,663.02 273.63,663.02 289.86,464.85 						"/>
						<polygon class="st37" points="148.36,464.85 116.72,663.02 127.54,663.02 170.84,464.85 						"/>
					</g>
				</g>
				<g>
					<rect x="108.79" y="444.07" class="st39" width="582.41" height="29.28"/>
					<rect x="469.26" y="444.07" class="st38" width="221.94" height="29.28"/>
					<polygon class="st37" points="108.79,444.07 469.26,473.35 469.26,444.07 					"/>
				</g>
			</g>
			<g>
				<path class="st40" d="M603.79,159.24v32.91c0,2.21-1.79,4-4,4h-56.67l-8.19,11v-11v-9.69v-27.22c0-2.21,1.79-4,4-4h60.86
					C602,155.24,603.79,157.03,603.79,159.24z"/>
				<g>
					<circle class="st19" cx="558.06" cy="176.2" r="2.85"/>
					<circle class="st19" cx="569.36" cy="176.2" r="2.85"/>
					<circle class="st19" cx="580.66" cy="176.2" r="2.85"/>
				</g>
			</g>
			<g>
				<path class="st26" d="M222.12,132.61v13.17c0,2.21,1.79,4,4,4h49.64c2.21,0,4-1.79,4-4v-13.17c0-2.21-1.79-4-4-4h-49.64
					C223.91,128.61,222.12,130.4,222.12,132.61z"/>
				<g>
					<circle class="st17" cx="258.87" cy="139.2" r="2"/>
					<circle class="st17" cx="250.94" cy="139.2" r="2"/>
					<circle class="st17" cx="243.02" cy="139.2" r="2"/>
				</g>
			</g>
		</g>
	</g>
</g>
</svg>
